<?xml version="1.0" encoding="UTF-8"?>
<!-- Generated by Pixelmator Pro 3.6.17 -->
<svg width="64" height="64" viewBox="0 0 64 64" xmlns="http://www.w3.org/2000/svg">
    <g id="layer1">
        <g id="layer1-0">
            <path id="rect3070" fill="#ffffff" stroke="none" d="M 9.876725 5.999996 C 9.378931 5.999828 8.901492 6.204449 8.549499 6.568794 C 8.197515 6.933151 7.999838 7.427361 8 7.942638 L 8 55.057362 C 7.999838 55.572639 8.197515 56.066845 8.549499 56.431202 C 8.901492 56.795559 9.378931 57.000179 9.876725 57 L 54.123276 57 C 54.621067 57.000179 55.098507 56.795559 55.4505 56.431202 C 55.802494 56.066845 56.000172 55.572639 56 55.057362 L 56 7.942638 C 56.000172 7.427361 55.802494 6.933151 55.4505 6.568794 C 55.098507 6.204449 54.621067 5.999828 54.123276 5.999996 L 9.876725 5.999996 Z M 11.753449 9.885277 L 52.246552 9.885277 L 52.246552 53.114723 L 11.753449 53.114723 L 11.753449 9.885277 Z"/>
            <path id="rect3840" fill="#ffffff" stroke="none" d="M 21.049156 12.000004 C 20.505346 11.998901 19.983482 12.211903 19.598955 12.59193 C 19.214417 12.971951 18.998886 13.487694 19.000006 14.025127 L 19.000006 22.98576 C 19.003759 24.100903 19.92078 25.002293 21.049156 24.999996 L 42.950844 24.999996 C 44.07922 25.002293 44.996227 24.100903 44.999996 22.98576 L 44.999996 14.025127 C 45.001114 13.487694 44.785572 12.971951 44.401054 12.59193 C 44.016518 12.211903 43.494656 11.998901 42.950844 12.000004 L 21.049156 12.000004 Z M 23.087292 16.039364 L 40.912708 16.039364 L 40.912708 20.960636 L 23.087292 20.960636 L 23.087292 16.039364 Z"/>
            <path id="rect3842" fill="#ffffff" stroke="none" d="M 22.544102 15.367771 L 35 15.367771 L 35 21.214729 L 22.544102 21.214729 Z"/>
            <path id="rect3844" fill="#ffffff" stroke="none" d="M 44.965923 37 L 19.035923 37 L 19.035923 51 L 44.965923 51 L 44.965923 37 Z M 22 47 L 42 47 L 42 49 L 22 49 L 22 47 Z M 42 43 L 42 45 L 22 45 L 22 43 L 42 43 Z M 42 39 L 42 41 L 22 41 L 22 39 L 42 39 Z"/>
        </g>
    </g>
</svg>
